<svg width="189" height="63" viewBox="0 0 189 63" fill="none" xmlns="http://www.w3.org/2000/svg">
<path d="M8.42969 25.7812L18.3438 51.5625L24.2734 50.5312L33.8594 25.7344L36.9766 24.5625L37.2344 21.8438H25.0469L24.7891 24.5625L28.9609 25.7812L22.6562 43.125L16.2344 25.7344L20.125 24.5625L20.5234 21.8438H5.33594L5.00781 24.5625L8.42969 25.7812ZM43.7969 25.8516V46.9922L39.7656 48.4688L39.5781 51H54.2969L54.5781 48.1875L50.3359 47.0625V25.8281L54.4141 24.6094L54.7188 21.8438H39.8125L39.4609 24.4922L43.7969 25.8516ZM61.5156 25.8516V46.9922L57.4844 48.4688L57.2969 51H72.0156L72.2969 48.1875L68.0547 47.0625V25.8281L72.1328 24.6094L72.4375 21.8438H57.5312L57.1797 24.4922L61.5156 25.8516Z" fill="black" fill-opacity="0.01"/>
<path d="M4.42969 23.7812L14.3438 49.5625L20.2734 48.5312L29.8594 23.7344L32.9766 22.5625L33.2344 19.8438H21.0469L20.7891 22.5625L24.9609 23.7812L18.6562 41.125L12.2344 23.7344L16.125 22.5625L16.5234 19.8438H1.33594L1.00781 22.5625L4.42969 23.7812ZM39.7969 23.8516V44.9922L35.7656 46.4688L35.5781 49H50.2969L50.5781 46.1875L46.3359 45.0625V23.8281L50.4141 22.6094L50.7188 19.8438H35.8125L35.4609 22.4922L39.7969 23.8516ZM57.5156 23.8516V44.9922L53.4844 46.4688L53.2969 49H68.0156L68.2969 46.1875L64.0547 45.0625V23.8281L68.1328 22.6094L68.4375 19.8438H53.5312L53.1797 22.4922L57.5156 23.8516Z" fill="white"/>
<path d="M121.14 13.6L118.548 19.6L115.992 13.6H113.892L117.516 22H119.436L123.072 13.6H121.14ZM123.773 22H125.717V13.6H123.773V22ZM130.471 22.144C132.871 22.144 134.035 20.944 134.035 19.54C134.035 16.456 129.151 17.524 129.151 15.976C129.151 15.448 129.595 15.016 130.747 15.016C131.491 15.016 132.295 15.232 133.075 15.676L133.675 14.2C132.895 13.708 131.815 13.456 130.759 13.456C128.371 13.456 127.219 14.644 127.219 16.072C127.219 19.192 132.103 18.112 132.103 19.684C132.103 20.2 131.635 20.584 130.483 20.584C129.475 20.584 128.419 20.224 127.711 19.708L127.051 21.172C127.795 21.748 129.139 22.144 130.471 22.144ZM139.095 22.144C141.483 22.144 142.899 20.776 142.899 18.304V13.6H140.979V18.232C140.979 19.828 140.295 20.488 139.107 20.488C137.931 20.488 137.235 19.828 137.235 18.232V13.6H135.291V18.304C135.291 20.776 136.707 22.144 139.095 22.144ZM150.92 22H152.96L149.204 13.6H147.284L143.54 22H145.532L146.276 20.2H150.176L150.92 22ZM146.9 18.724L148.232 15.508L149.564 18.724H146.9ZM153.7 22H155.572V13.096H153.7V22ZM114.996 37H116.94V28.6H114.996V37ZM124.717 28.6V33.7L120.542 28.6H118.934V37H120.854V31.9L125.042 37H126.638V28.6H124.717ZM130.365 37H132.309V30.184H134.997V28.6H127.677V30.184H130.365V37ZM137.975 35.44V33.496H141.875V31.984H137.975V30.16H142.391V28.6H136.043V37H142.547V35.44H137.975ZM151.534 37L149.65 34.3C150.742 33.832 151.378 32.908 151.378 31.648C151.378 29.764 149.974 28.6 147.73 28.6H144.094V37H146.038V34.66H147.73H147.826L149.446 37H151.534ZM149.41 31.648C149.41 32.56 148.81 33.112 147.622 33.112H146.038V30.184H147.622C148.81 30.184 149.41 30.724 149.41 31.648ZM159.194 37H161.234L157.478 28.6H155.558L151.814 37H153.806L154.55 35.2H158.45L159.194 37ZM155.174 33.724L156.506 30.508L157.838 33.724H155.174ZM167.853 37H170.121L166.437 32.344L169.917 28.6H167.757L164.037 32.524V28.6H162.105V37H164.037V34.876L165.165 33.7L167.853 37ZM172.154 37H174.098V30.184H176.786V28.6H169.466V30.184H172.154V37ZM177.832 37H179.776V28.6H177.832V37ZM188.117 30.16V28.6H181.769V37H183.713V33.94H187.601V32.38H183.713V30.16H188.117ZM114.996 52H116.94V43.6H114.996V52ZM118.934 52H125.09V50.416H120.878V43.6H118.934V52ZM131.936 43.6V46.912H128.12V43.6H126.176V52H128.12V48.556H131.936V52H133.88V43.6H131.936ZM142.143 52H144.183L140.427 43.6H138.507L134.763 52H136.755L137.499 50.2H141.399L142.143 52ZM138.123 48.724L139.455 45.508L140.787 48.724H138.123ZM154.523 52L154.499 43.6H152.903L149.807 48.82L146.663 43.6H145.055V52H146.879V47.068L149.339 51.112H150.215L152.687 46.96L152.699 52H154.523Z" fill="white"/>
<line x1="92" y1="9" x2="92" y2="56" stroke="white" stroke-width="4"/>
</svg>
