<svg width="42" height="62" viewBox="0 0 42 62" fill="none" xmlns="http://www.w3.org/2000/svg">
<circle cx="4.5" cy="10.5" r="2.5" fill="white"/>
<line x1="11.5" y1="10.5" x2="32.5" y2="10.5" stroke="white" stroke-width="5" stroke-linecap="round"/>
<circle cx="4.5" cy="2.5" r="2.5" fill="white"/>
<line x1="11.5" y1="2.5" x2="32.5" y2="2.5" stroke="white" stroke-width="5" stroke-linecap="round"/>
<circle cx="4.5" cy="18.5" r="2.5" fill="white"/>
<line x1="11.5" y1="18.5" x2="32.5" y2="18.5" stroke="white" stroke-width="5" stroke-linecap="round"/>
<path d="M10.5343 44L10.5103 35.6H8.91431L5.81831 40.82L2.67431 35.6H1.06631V44H2.89031V39.068L5.35031 43.112H6.22631L8.69831 38.96L8.71031 44H10.5343ZM16.5953 44.144C19.2353 44.144 21.1913 42.308 21.1913 39.8C21.1913 37.292 19.2353 35.456 16.5953 35.456C13.9433 35.456 11.9993 37.304 11.9993 39.8C11.9993 42.296 13.9433 44.144 16.5953 44.144ZM16.5953 42.488C15.0953 42.488 13.9673 41.396 13.9673 39.8C13.9673 38.204 15.0953 37.112 16.5953 37.112C18.0953 37.112 19.2233 38.204 19.2233 39.8C19.2233 41.396 18.0953 42.488 16.5953 42.488ZM30.0923 44L28.2083 41.3C29.3003 40.832 29.9363 39.908 29.9363 38.648C29.9363 36.764 28.5323 35.6 26.2883 35.6H22.6523V44H24.5963V41.66H26.2883H26.3843L28.0043 44H30.0923ZM27.9683 38.648C27.9683 39.56 27.3683 40.112 26.1803 40.112H24.5963V37.184H26.1803C27.3683 37.184 27.9683 37.724 27.9683 38.648ZM33.4085 42.44V40.496H37.3085V38.984H33.4085V37.16H37.8245V35.6H31.4765V44H37.9805V42.44H33.4085ZM6.32803 59H8.27203V50.6H6.32803V59ZM16.0495 50.6V55.7L11.8735 50.6H10.2655V59H12.1855V53.9L16.3735 59H17.9695V50.6H16.0495ZM26.3049 52.16V50.6H19.9569V59H21.9009V55.94H25.7889V54.38H21.9009V52.16H26.3049ZM31.607 59.144C34.247 59.144 36.203 57.308 36.203 54.8C36.203 52.292 34.247 50.456 31.607 50.456C28.955 50.456 27.011 52.304 27.011 54.8C27.011 57.296 28.955 59.144 31.607 59.144ZM31.607 57.488C30.107 57.488 28.979 56.396 28.979 54.8C28.979 53.204 30.107 52.112 31.607 52.112C33.107 52.112 34.235 53.204 34.235 54.8C34.235 56.396 33.107 57.488 31.607 57.488Z" fill="white"/>
</svg>
