<svg width="70" height="134" viewBox="0 0 70 134" fill="none" xmlns="http://www.w3.org/2000/svg">
<rect x="4" y="2" width="62" height="88" rx="23" stroke="white" stroke-width="4"/>
<line x1="35" y1="16" x2="35" y2="40" stroke="white" stroke-width="4" stroke-linecap="round"/>
<path d="M7.512 128.288C12.312 128.288 14.64 125.888 14.64 123.08C14.64 116.912 4.872 119.048 4.872 115.952C4.872 114.896 5.76 114.032 8.064 114.032C9.552 114.032 11.16 114.464 12.72 115.352L13.92 112.4C12.36 111.416 10.2 110.912 8.088 110.912C3.312 110.912 1.008 113.288 1.008 116.144C1.008 122.384 10.776 120.224 10.776 123.368C10.776 124.4 9.84 125.168 7.536 125.168C5.52 125.168 3.408 124.448 1.992 123.416L0.672 126.344C2.16 127.496 4.848 128.288 7.512 128.288ZM23.2727 128.192C25.9847 128.192 28.1207 126.992 29.0567 124.928L26.1527 123.344C25.4567 124.592 24.4247 125.12 23.2487 125.12C21.3527 125.12 19.8647 123.8 19.8647 121.544C19.8647 119.288 21.3527 117.968 23.2487 117.968C24.4247 117.968 25.4567 118.52 26.1527 119.744L29.0567 118.184C28.1207 116.072 25.9847 114.896 23.2727 114.896C19.0727 114.896 16.0727 117.656 16.0727 121.544C16.0727 125.432 19.0727 128.192 23.2727 128.192ZM34.7884 116.792V115.088H31.2124V128H34.9564V121.904C34.9564 119.432 36.3244 118.304 38.3884 118.304C38.6764 118.304 38.9164 118.328 39.2284 118.352V114.896C37.2364 114.896 35.7004 115.544 34.7884 116.792ZM47.4814 128.192C51.5854 128.192 54.5614 125.432 54.5614 121.544C54.5614 117.656 51.5854 114.896 47.4814 114.896C43.3774 114.896 40.3774 117.656 40.3774 121.544C40.3774 125.432 43.3774 128.192 47.4814 128.192ZM47.4814 125.12C45.6094 125.12 44.1694 123.776 44.1694 121.544C44.1694 119.312 45.6094 117.968 47.4814 117.968C49.3534 117.968 50.7694 119.312 50.7694 121.544C50.7694 123.776 49.3534 125.12 47.4814 125.12ZM57.0639 128H60.8079V110.192H57.0639V128ZM64.2827 128H68.0267V110.192H64.2827V128Z" fill="white"/>
</svg>
